<mxfile host="Electron" agent="Mozilla/5.0 (Windows NT 10.0; Win64; x64) AppleWebKit/537.36 (KHTML, like Gecko) draw.io/27.0.9 Chrome/134.0.6998.205 Electron/35.4.0 Safari/537.36" version="27.0.9">
  <diagram name="Page-1" id="huJqQuxKFzz3dTHUdNGq">
    <mxGraphModel dx="3425" dy="1303" grid="1" gridSize="10" guides="1" tooltips="1" connect="1" arrows="1" fold="1" page="1" pageScale="1" pageWidth="850" pageHeight="1100" math="0" shadow="0">
      <root>
        <mxCell id="0" />
        <mxCell id="1" parent="0" />
        <mxCell id="inf8TXOKHiBnoRV2TL6L-7" value="&lt;h1&gt;Adding a car&lt;/h1&gt;" style="ellipse;whiteSpace=wrap;html=1;" parent="1" vertex="1">
          <mxGeometry x="-210" y="830" width="180" height="120" as="geometry" />
        </mxCell>
        <mxCell id="inf8TXOKHiBnoRV2TL6L-9" value="&lt;h1&gt;Adding to cart&lt;/h1&gt;" style="ellipse;whiteSpace=wrap;html=1;" parent="1" vertex="1">
          <mxGeometry x="-220" y="420" width="190" height="110" as="geometry" />
        </mxCell>
        <mxCell id="inf8TXOKHiBnoRV2TL6L-13" value="&lt;h1&gt;Buying a car&lt;/h1&gt;" style="ellipse;whiteSpace=wrap;html=1;" parent="1" vertex="1">
          <mxGeometry x="-170" y="550" width="180" height="110" as="geometry" />
        </mxCell>
        <mxCell id="inf8TXOKHiBnoRV2TL6L-14" value="&lt;h1&gt;Display the list of availabel cars&lt;/h1&gt;" style="ellipse;whiteSpace=wrap;html=1;" parent="1" vertex="1">
          <mxGeometry x="-200" y="700" width="190" height="100" as="geometry" />
        </mxCell>
        <mxCell id="inf8TXOKHiBnoRV2TL6L-15" value="&lt;h1&gt;Login&lt;/h1&gt;" style="ellipse;whiteSpace=wrap;html=1;" parent="1" vertex="1">
          <mxGeometry x="-220" y="280" width="210" height="110" as="geometry" />
        </mxCell>
        <mxCell id="Xa2Ebd0-2Kg3bkShgWg6-4" value="" style="endArrow=none;html=1;rounded=0;entryX=1.006;entryY=0.127;entryDx=0;entryDy=0;entryPerimeter=0;" edge="1" parent="1">
          <mxGeometry width="50" height="50" relative="1" as="geometry">
            <mxPoint x="204" y="246" as="sourcePoint" />
            <mxPoint x="214.01999999999953" y="245.56999999999994" as="targetPoint" />
            <Array as="points">
              <mxPoint x="-460" y="250" />
            </Array>
          </mxGeometry>
        </mxCell>
        <mxCell id="Xa2Ebd0-2Kg3bkShgWg6-7" value="&lt;h1&gt;&lt;span style=&quot;font-size: 30px;&quot;&gt;Car shopping&amp;nbsp;&lt;/span&gt;&lt;/h1&gt;" style="text;html=1;align=center;verticalAlign=middle;resizable=0;points=[];autosize=1;strokeColor=none;fillColor=none;" vertex="1" parent="1">
          <mxGeometry x="-250" y="165" width="230" height="80" as="geometry" />
        </mxCell>
        <mxCell id="Xa2Ebd0-2Kg3bkShgWg6-47" style="edgeStyle=orthogonalEdgeStyle;rounded=0;orthogonalLoop=1;jettySize=auto;html=1;exitX=0.5;exitY=0;exitDx=0;exitDy=0;exitPerimeter=0;" edge="1" parent="1" source="Xa2Ebd0-2Kg3bkShgWg6-8" target="Xa2Ebd0-2Kg3bkShgWg6-32">
          <mxGeometry relative="1" as="geometry" />
        </mxCell>
        <mxCell id="Xa2Ebd0-2Kg3bkShgWg6-56" style="edgeStyle=orthogonalEdgeStyle;rounded=0;orthogonalLoop=1;jettySize=auto;html=1;exitX=0.5;exitY=0.5;exitDx=0;exitDy=0;exitPerimeter=0;" edge="1" parent="1" source="Xa2Ebd0-2Kg3bkShgWg6-8" target="inf8TXOKHiBnoRV2TL6L-14">
          <mxGeometry relative="1" as="geometry" />
        </mxCell>
        <mxCell id="Xa2Ebd0-2Kg3bkShgWg6-8" value="Actor" style="shape=umlActor;verticalLabelPosition=bottom;verticalAlign=top;html=1;outlineConnect=0;" vertex="1" parent="1">
          <mxGeometry x="-760" y="720" width="80" height="170" as="geometry" />
        </mxCell>
        <mxCell id="Xa2Ebd0-2Kg3bkShgWg6-43" style="edgeStyle=orthogonalEdgeStyle;rounded=0;orthogonalLoop=1;jettySize=auto;html=1;exitX=0.5;exitY=0;exitDx=0;exitDy=0;exitPerimeter=0;" edge="1" parent="1" source="Xa2Ebd0-2Kg3bkShgWg6-10" target="Xa2Ebd0-2Kg3bkShgWg6-32">
          <mxGeometry relative="1" as="geometry">
            <Array as="points">
              <mxPoint x="-570" y="390" />
            </Array>
          </mxGeometry>
        </mxCell>
        <mxCell id="Xa2Ebd0-2Kg3bkShgWg6-49" style="edgeStyle=orthogonalEdgeStyle;rounded=0;orthogonalLoop=1;jettySize=auto;html=1;exitX=0.5;exitY=0.5;exitDx=0;exitDy=0;exitPerimeter=0;entryX=0;entryY=0.5;entryDx=0;entryDy=0;" edge="1" parent="1" source="Xa2Ebd0-2Kg3bkShgWg6-10" target="inf8TXOKHiBnoRV2TL6L-9">
          <mxGeometry relative="1" as="geometry" />
        </mxCell>
        <mxCell id="Xa2Ebd0-2Kg3bkShgWg6-58" style="edgeStyle=orthogonalEdgeStyle;rounded=0;orthogonalLoop=1;jettySize=auto;html=1;exitX=0.5;exitY=0.5;exitDx=0;exitDy=0;exitPerimeter=0;" edge="1" parent="1" source="Xa2Ebd0-2Kg3bkShgWg6-10" target="inf8TXOKHiBnoRV2TL6L-7">
          <mxGeometry relative="1" as="geometry" />
        </mxCell>
        <mxCell id="Xa2Ebd0-2Kg3bkShgWg6-10" value="Actor" style="shape=umlActor;verticalLabelPosition=bottom;verticalAlign=top;html=1;outlineConnect=0;" vertex="1" parent="1">
          <mxGeometry x="-620" y="890" width="80" height="160" as="geometry" />
        </mxCell>
        <mxCell id="Xa2Ebd0-2Kg3bkShgWg6-11" value="Actor" style="shape=umlActor;verticalLabelPosition=bottom;verticalAlign=top;html=1;outlineConnect=0;" vertex="1" parent="1">
          <mxGeometry x="-1010" y="570" width="80" height="160" as="geometry" />
        </mxCell>
        <mxCell id="Xa2Ebd0-2Kg3bkShgWg6-55" style="edgeStyle=orthogonalEdgeStyle;rounded=0;orthogonalLoop=1;jettySize=auto;html=1;exitX=0.5;exitY=0.5;exitDx=0;exitDy=0;exitPerimeter=0;" edge="1" parent="1" source="Xa2Ebd0-2Kg3bkShgWg6-32" target="inf8TXOKHiBnoRV2TL6L-15">
          <mxGeometry relative="1" as="geometry" />
        </mxCell>
        <mxCell id="Xa2Ebd0-2Kg3bkShgWg6-32" value="Actor" style="shape=umlActor;verticalLabelPosition=bottom;verticalAlign=top;html=1;outlineConnect=0;" vertex="1" parent="1">
          <mxGeometry x="-800" y="160" width="80" height="160" as="geometry" />
        </mxCell>
        <mxCell id="Xa2Ebd0-2Kg3bkShgWg6-41" style="edgeStyle=orthogonalEdgeStyle;rounded=0;orthogonalLoop=1;jettySize=auto;html=1;exitX=0.5;exitY=0.5;exitDx=0;exitDy=0;exitPerimeter=0;entryX=0;entryY=1;entryDx=0;entryDy=0;entryPerimeter=0;" edge="1" parent="1" source="Xa2Ebd0-2Kg3bkShgWg6-11" target="Xa2Ebd0-2Kg3bkShgWg6-32">
          <mxGeometry relative="1" as="geometry" />
        </mxCell>
        <mxCell id="Xa2Ebd0-2Kg3bkShgWg6-53" style="edgeStyle=orthogonalEdgeStyle;rounded=0;orthogonalLoop=1;jettySize=auto;html=1;exitX=1;exitY=0.3333333333333333;exitDx=0;exitDy=0;exitPerimeter=0;entryX=0.069;entryY=0.7;entryDx=0;entryDy=0;entryPerimeter=0;" edge="1" parent="1" source="Xa2Ebd0-2Kg3bkShgWg6-11" target="inf8TXOKHiBnoRV2TL6L-13">
          <mxGeometry relative="1" as="geometry">
            <Array as="points">
              <mxPoint x="-930" y="617" />
            </Array>
          </mxGeometry>
        </mxCell>
      </root>
    </mxGraphModel>
  </diagram>
</mxfile>
